<svg xmlns="http://www.w3.org/2000/svg" version="1.1" xmlns:xlink="http://www.w3.org/1999/xlink" xmlns:svgjs="http://svgjs.com/svgjs" width="1440" height="789" preserveAspectRatio="none" viewBox="0 0 1440 789"><g mask="url(&quot;#SvgjsMask2991&quot;)" fill="none"><rect width="1440" height="789" x="0" y="0" fill="url(#SvgjsRadialGradient2992)"></rect><path d="M 0,386 C 57.6,345 172.8,186.4 288,181 C 403.2,175.6 460.8,379.4 576,359 C 691.2,338.6 748.8,95 864,79 C 979.2,63 1036.8,290.2 1152,279 C 1267.2,267.8 1382.4,74.2 1440,23L1440 789L0 789z" fill="rgba(231, 185, 209, 0.52)"></path><path d="M 0,469 C 96,507.8 288,659.4 480,663 C 672,666.6 768,500.6 960,487 C 1152,473.4 1344,573.4 1440,595L1440 789L0 789z" fill="rgba(222, 100, 174, 0.47)"></path></g><defs><mask id="SvgjsMask2991"><rect width="1440" height="789" fill="#ffffff"></rect></mask><radialGradient cx="50%" cy="50%" r="820.99" gradientUnits="userSpaceOnUse" id="SvgjsRadialGradient2992"><stop stop-color="rgba(246, 145, 227, 1)" offset="0.3"></stop><stop stop-color="rgba(158, 31, 77, 1)" offset="0.99"></stop></radialGradient></defs></svg>