<svg xmlns="http://www.w3.org/2000/svg" version="1.1" xmlns:xlink="http://www.w3.org/1999/xlink" xmlns:svgjs="http://svgjs.com/svgjs" width="1920" height="1080" preserveAspectRatio="none" viewBox="0 0 1920 1080"><g mask="url(&quot;#SvgjsMask1682&quot;)" fill="none"><rect width="1920" height="1080" x="0" y="0" fill="url(#SvgjsLinearGradient1683)"></rect><path d="M 0,493 C 76.8,440.8 230.4,242.4 384,232 C 537.6,221.6 614.4,486.8 768,441 C 921.6,395.2 998.4,-11.8 1152,3 C 1305.6,17.8 1382.4,489.2 1536,515 C 1689.6,540.8 1843.2,208.6 1920,132L1920 1080L0 1080z" fill="rgba(39, 204, 132, 0.33)"></path><path d="M 0,835 C 64,821.8 192,736.2 320,769 C 448,801.8 512,1014.6 640,999 C 768,983.4 832,677.6 960,691 C 1088,704.4 1152,1067.4 1280,1066 C 1408,1064.6 1472,699.2 1600,684 C 1728,668.8 1856,928.8 1920,990L1920 1080L0 1080z" fill="rgba(37, 1, 23, 0.47)"></path></g><defs><mask id="SvgjsMask1682"><rect width="1920" height="1080" fill="#ffffff"></rect></mask><linearGradient x1="50%" y1="0%" x2="50%" y2="100%" gradientUnits="userSpaceOnUse" id="SvgjsLinearGradient1683"><stop stop-color="rgba(41, 39, 40, 1)" offset="0.19"></stop><stop stop-color="rgba(45, 42, 43, 1)" offset="0.27"></stop><stop stop-color="rgba(45, 42, 43, 1)" offset="0.44"></stop><stop stop-color="rgba(45, 42, 43, 1)" offset="0.73"></stop></linearGradient></defs></svg>